OpenSim_Sub01_EMGBaseline_GRF.mot
version=1
nRows=52
nColumns=19
inDegrees=no
endheader
time	lFx	lFy	lFz	lCOPx	lCOPy	lCOPz	rFx	rFy	rFz	rCOPx	rCOPy	rCOPz	lMx	lMy	lMz	rMx	rMy	rMz
38.02000000	-6.23965697	0.49200530	-7.73312429	-0.00003640	0	0.00002678	-17.08695022	593.56537148	-40.13308426	1.06947676	0	-0.41549315	0	0.00016795	0	0	-0.48495806	-0.00000000
38.03000000	-6.26544308	0.48477039	-7.74562803	-0.00001889	0	0.00001383	-14.89236761	588.75569000	-39.65285429	1.06456022	0	-0.41552567	0	0.00010007	0	0	-0.29959666	-0.00000000
38.04000000	-6.28327950	0.38572148	-7.70553111	-0.00000564	0	0.00000409	-12.83185828	585.12304884	-39.44416800	1.05989579	0	-0.41538372	0	0.00003643	0	0	-0.09171157	-0.00000000
38.05000000	-6.28500104	0.19573789	-7.69342525	0.00000043	0	-0.00000035	-11.12859520	582.52325462	-39.63838336	1.05547781	0	-0.41515357	0	0.00000299	0	0	0.13971176	-0.00000000
38.06000000	-6.27482392	-0.02775241	-7.72378775	0.00000184	0	-0.00000136	-9.78285592	580.77764340	-40.20302379	1.05114161	0	-0.41492666	0	-0.00000721	0	0	0.35035222	0
38.07000000	-6.26559168	-0.12419550	-7.71322667	0.00000137	0	-0.00000101	-8.54624708	579.91768062	-41.07637485	1.04664581	0	-0.41483308	0	-0.00000661	0	0	0.57852812	0
38.08000000	-6.25181083	-0.07102762	-7.67961526	0.00000062	0	-0.00000045	-7.23129470	580.25586047	-41.96266745	1.04195977	0	-0.41494593	0	-0.00000339	0	0	0.84892212	0.00000000
38.09000000	-6.22926459	0.07520820	-7.66124913	0.00000011	0	-0.00000009	-5.75335631	582.19888465	-42.34696886	1.03715362	0	-0.41527161	0	-0.00000087	0	0	1.09796081	0.00000000
38.10000000	-6.20586889	0.24638230	-7.64466579	-0.00000012	0	0.00000008	-4.05829669	585.94304069	-42.10508394	1.03228074	0	-0.41579245	0	0.00000043	0	0	1.30408762	-0.00000000
38.11000000	-6.22096772	0.35081030	-7.57413427	-0.00000021	0	0.00000012	-2.14886051	591.46105656	-41.35610831	1.02723351	0	-0.41642407	0	0.00000083	0	0	1.52002741	-0.00000000
38.12000000	-6.26649196	0.36586447	-7.48066901	-0.00000017	0	0.00000010	-0.08666551	598.44968751	-40.18507913	1.02206548	0	-0.41701532	0	0.00000046	0	0	1.74116313	-0.00000000
38.13000000	-6.29995142	0.27646818	-7.39822959	0.00000010	0	-0.00000005	1.95314664	606.09508500	-38.86679558	1.01695596	0	-0.41750420	0	-0.00000115	0	0	1.94779876	-0.00000000
38.14000000	-6.29302062	0.14266411	-7.31990907	0.00000083	0	-0.00000043	3.88242727	613.55558502	-37.75492509	1.01202069	0	-0.41789812	0	-0.00000462	0	0	2.15202794	0
38.15000000	-6.26025871	0.04310061	-7.25735517	0.00000209	0	-0.00000108	5.66192520	620.29048824	-37.01898573	1.00721661	0	-0.41820121	0	-0.00000944	0	0	2.31902923	0
38.16000000	-6.23602981	0.04939469	-7.20222867	0.00000321	0	-0.00000165	7.44503199	626.04032686	-36.68559460	1.00247481	0	-0.41841226	0	-0.00001123	0	0	2.41324931	0.00000000
38.17000000	-6.20905709	0.16071747	-7.15555202	0.00000191	0	-0.00000096	9.24244870	630.91406986	-36.73455118	0.99792389	0	-0.41855168	0	0.00000142	0	0	2.46511698	0
38.18000000	-6.16957888	0.32750036	-7.11618938	-0.00000632	0	0.00000332	10.89054414	635.08844558	-36.95514496	0.99353964	0	-0.41862627	0	0.00004690	0	0	2.50118287	0
38.19000000	-6.12103991	0.42536629	-7.07284494	-0.00002656	0	0.00001378	12.36481126	638.51834353	-37.15571197	0.98929869	0	-0.41861631	0	0.00013807	0	0	2.55157827	0.00000000
38.20000000	-6.05864003	0.42316174	-7.03485821	-0.00005728	0	0.00002958	13.95913520	640.92503798	-37.38981556	0.98512949	0	-0.41854117	0	0.00024447	0	0	2.64725769	0
38.21000000	-5.98600197	0.40572972	-7.03914485	-0.00007450	0	0.00003822	15.76774809	642.27930482	-37.80744204	0.98103315	0	-0.41841811	0	0.00022428	0	0	2.77895388	-0.00000000
38.22000000	-5.92940047	0.40380887	-7.06878928	-0.00001069	0	0.00000474	17.74423526	642.80961304	-38.43962976	0.97692477	0	-0.41830687	0	-0.00024099	0	0	2.87621350	-0.00000000
38.23000000	-5.89683217	0.37601771	-7.12240971	0.00024981	0	-0.00013042	19.97537204	642.87515230	-39.29364689	0.97265208	0	-0.41822875	0	-0.00158757	0	0	2.92944004	-0.00000000
38.24000000	-5.87341105	0.29403154	-7.19807536	0.00080466	0	-0.00041689	22.48402866	642.84150750	-40.28908469	0.96807001	0	-0.41815141	0	-0.00394237	0	0	2.97043538	0.00000000
38.25000000	-5.83313844	0.25059766	-7.27562921	0.00151410	0	-0.00078070	25.19210655	643.03685012	-41.28075055	0.96330593	0	-0.41804563	0	-0.00603930	0	0	2.98310507	0.00000000
38.26000000	-5.77540222	0.24082072	-7.33970375	0.00158024	0	-0.00080723	27.98460577	643.75081087	-42.08789351	0.95841584	0	-0.41795056	0	-0.00352437	0	0	2.97655073	0
38.27000000	-5.74784136	0.11111678	-7.39424888	-0.00090752	0	0.00049110	30.91311742	645.56957126	-42.63355992	0.95334922	0	-0.41792107	0	0.01211974	0	0	2.97519392	-0.00000000
38.28000000	-5.82209490	-0.33205582	-7.43869458	-0.00876809	0	0.00456314	34.10258994	649.15831855	-42.87269159	0.94807114	0	-0.41797242	0	0.05043661	0	0	2.97753745	0.00000000
38.29000000	-6.07662005	-1.21573103	-7.49464392	-0.02337915	0	0.01209581	37.75460441	654.55170212	-42.68089856	0.94249725	0	-0.41805232	0	0.10832205	0	0	2.94794273	0
38.30000000	-6.52026626	-2.25397656	-7.49178080	-0.03826608	0	0.01969654	41.85804080	660.75166407	-42.22663795	0.93675771	0	-0.41812715	0	0.14009265	0	0	2.90135997	0.00000000
38.31000000	-6.89800441	-2.02657254	-7.27320197	-0.02839973	0	0.01438314	46.22400558	666.16286913	-41.73944890	0.93082962	0	-0.41816719	0	0.01777986	0	0	2.86714131	0
38.32000000	-6.41951845	2.66332784	-6.75442134	0.05822956	0	-0.03069086	50.65636735	669.39127424	-41.35608337	0.92470403	0	-0.41818260	0	-0.47682853	0	0	2.83773869	0
38.33000000	-3.61292590	16.00749455	-5.95956396	0.28580464	0	-0.14841830	55.11613784	669.50559374	-41.20757491	0.91839700	0	-0.41827124	0	-1.52597219	0	0	2.80189199	0.00000000
38.34000000	2.29577982	40.60433577	-5.36363448	0.65349396	0	-0.33764368	59.44673097	666.24703058	-41.26174047	0.91202292	0	-0.41849000	0	-2.85990048	0	0	2.74264954	0
38.35000000	7.59216480	74.05487913	-6.01852998	0.98677447	0	-0.50786072	63.49382305	659.49647654	-41.17797479	0.90571028	0	-0.41885372	0	-3.31822266	0	0	2.64352814	-0.00000000
38.36000000	7.46516566	109.94670534	-8.00568827	1.16347633	0	-0.59679992	67.26846542	648.94960363	-40.55864740	0.89952026	0	-0.41935940	0	-2.40793084	0	0	2.53389007	-0.00000000
38.37000000	2.41371485	145.95750704	-10.37172911	1.22045084	0	-0.62266973	70.90240076	634.13694877	-39.07711937	0.89341321	0	-0.42002455	0	-0.65800511	0	0	2.45461943	0
38.38000000	-4.58277592	184.23240477	-11.95566507	1.22259668	0	-0.61999261	74.42177818	614.60225342	-36.49626038	0.88740966	0	-0.42088902	0	1.26666900	0	0	2.36834766	-0.00000000
38.39000000	-12.27698441	225.55488566	-11.14376199	1.21028258	0	-0.61138203	77.51743926	590.01637410	-32.69299868	0.88142653	0	-0.42195420	0	2.82044498	0	0	2.29711306	0
38.40000000	-20.32866462	268.33095281	-7.12901082	1.20026707	0	-0.60576063	79.84394697	560.25738152	-27.76248034	0.87540777	0	-0.42316696	0	3.66656286	0	0	2.28221006	0
38.41000000	-28.20779734	309.46050061	-0.31064031	1.19621483	0	-0.60417945	81.10145373	525.11780549	-22.05718990	0.86924056	0	-0.42440687	0	3.77832551	0	0	2.25535621	-0.00000000
38.42000000	-34.73272504	344.86991112	7.21832730	1.19609839	0	-0.60489432	80.91521227	484.28753542	-16.07469495	0.86314414	0	-0.42546066	0	3.52896820	0	0	2.13909114	0
38.43000000	-38.70087441	372.82471728	13.75062495	1.19650290	0	-0.60628509	78.64669493	437.46090721	-10.28737526	0.85720649	0	-0.42616660	0	3.21358667	0	0	1.93747406	0
38.44000000	-41.34837112	395.74992904	19.73584402	1.19523678	0	-0.60751112	73.89840749	384.60204649	-5.27024925	0.85147586	0	-0.42656715	0	2.91438804	0	0	1.65046397	0.00000000
38.45000000	-43.90624133	418.10528082	24.94753857	1.19245146	0	-0.60836544	66.37452985	326.56250452	-1.60091191	0.84670430	0	-0.42706563	0	2.79015686	0	0	1.29376921	0.00000000
38.46000000	-46.44069079	442.76696006	28.92144561	1.18839774	0	-0.60874891	55.86675990	265.79677923	0.38709605	0.84481247	0	-0.42847586	0	2.98486668	0	0	0.92626542	0.00000000
38.47000000	-48.19448078	470.53737308	31.56977838	1.18313785	0	-0.60872010	42.47645223	206.51516206	0.79181041	0.84876984	0	-0.43180155	0	3.56544097	0	0	0.60926577	0.00000000
38.48000000	-48.82445326	501.12975815	33.23193543	1.17708177	0	-0.60850979	27.29127221	153.57506133	0.23962171	0.86018174	0	-0.43700382	0	4.45560780	0	0	0.38163528	0
38.49000000	-48.77131000	533.77098392	34.97931890	1.17102847	0	-0.60835330	12.64536988	110.50292971	-0.49202707	0.87224775	0	-0.44003951	0	5.40541208	0	0	0.23349293	0.00000000
38.50000000	-48.69380735	566.73895846	37.72904922	1.16531093	0	-0.60837224	1.15945463	78.36711472	-0.93451166	0.85878748	0	-0.42823249	0	6.20148103	0	0	0.11873989	-0.00000000
38.51000000	-48.83689331	597.19546539	41.55669532	1.15985432	0	-0.60860705	-5.62062275	55.42247438	-0.97706789	0.77178650	0	-0.37906408	0	6.70643060	0	0	0.00509322	0.00000000
38.52000000	-48.90498135	622.70390305	45.97220586	1.15450385	0	-0.60893963	-8.12660074	38.98996937	-0.75107137	0.56727856	0	-0.27325782	0	6.85739517	0	0	-0.08289903	-0.00000000
38.53000000	-48.45076212	642.34171829	50.09789990	1.14928881	0	-0.60923121	-8.17192215	26.89754036	-0.55922737	0.28842128	0	-0.13580590	0	6.72765453	0	0	-0.08724652	-0.00000000
